<svg width="57.00000000000001" height="57.00000000000001" xmlns="http://www.w3.org/2000/svg" fill="none">
 <g>
  <title>Layer 1</title>
  <g/>
  <g>
   <circle stroke-width="2" stroke="#555555" r="27" cy="28.5" cx="28.5"/>
  </g>
  <g>
   <path stroke-linejoin="round" stroke-linecap="round" stroke-width="2.20833" stroke="#555555" d="m46.91665,47.59618c-10.7695,10.7696 -26.0637,10.7696 -36.83329,0c2.50701,-2.507 7.26452,-5.2861 13.63219,-7.8331l0,-5.0942c0,0 -2.5471,-0.894 -2.5471,-6.3676c-2.547,0 -2.547,-5.0941 0,-5.0941c0,-0.7336 -4.2663,-7.46545 1.0978,-6.36767c1.2735,-5.09411 13.828,-5.09411 15.1015,0c0.759,3.03355 -1.1411,5.83017 -1.1411,6.36767c2.4681,0 1.7931,5.0941 0.0204,5.0941c0,5.4736 -2.3433,6.3676 -2.3433,6.3676l0,5.0942c6.3676,2.547 9.7635,4.6725 13.0129,7.8331z"/>
  </g>
 </g>

</svg>