<svg width="56" height="56.15" xmlns="http://www.w3.org/2000/svg" fill="none">
 <g>
  <title>Layer 1</title>
  <g id="svg_4">
   <path stroke-width="2" id="svg_1" stroke-linejoin="round" stroke-linecap="round" stroke="#555555" d="m42.64173,44.71257c-8.56214,8.7877 -20.72139,8.7877 -29.28346,0c1.99314,-2.04568 5.77549,-4.31323 10.83793,-6.39162l0,-4.15659c0,0 -2.02497,-0.72945 -2.02497,-5.19584c-2.02499,0 -2.02499,-4.15665 0,-4.15665c0,-0.59857 -3.39185,-6.09158 0.87275,-5.19582c1.0125,-4.15665 10.99358,-4.15665 12.0061,0c0.60341,2.47529 -0.90727,4.75729 -0.90727,5.19582c1.96234,0 1.42559,4.15665 0.01636,4.15665c0,4.46639 -1.86312,5.19584 -1.86312,5.19584l0,4.15659c5.06242,2.07839 7.76219,3.81273 10.34568,6.39162z"/>
   <path stroke-width="2" id="svg_2" d="m28,51.30334c-12.2243,0 -22.12598,-10.395 -22.12598,-23.22834c0,-12.83334 9.90168,-23.22834 22.12598,-23.22834c12.2243,0 22.12598,10.395 22.12598,23.22834c0,12.83334 -9.90168,23.22834 -22.12598,23.22834z" opacity="undefined" stroke="#555555" fill="none"/>
  </g>
 </g>
</svg>